<mxfile host="Electron" modified="2023-12-01T10:38:26.652Z" agent="Mozilla/5.0 (Macintosh; Intel Mac OS X 10_15_7) AppleWebKit/537.36 (KHTML, like Gecko) draw.io/21.7.5 Chrome/114.0.5735.289 Electron/25.8.1 Safari/537.36" etag="g7Pext3bXN8s6-FqGKBk" version="21.7.5" type="device">
  <diagram name="Pagina-1" id="V5ksIkCfvQu8_VufCoOh">
    <mxGraphModel dx="607" dy="776" grid="1" gridSize="10" guides="1" tooltips="1" connect="1" arrows="1" fold="1" page="1" pageScale="1" pageWidth="827" pageHeight="1169" math="0" shadow="0">
      <root>
        <mxCell id="0" />
        <mxCell id="1" parent="0" />
        <mxCell id="JWHr9cYI6euD82Q0gi6f-64" style="edgeStyle=orthogonalEdgeStyle;rounded=0;orthogonalLoop=1;jettySize=auto;html=1;exitX=0.75;exitY=1;exitDx=0;exitDy=0;" parent="1" source="JWHr9cYI6euD82Q0gi6f-2" target="JWHr9cYI6euD82Q0gi6f-60" edge="1">
          <mxGeometry relative="1" as="geometry" />
        </mxCell>
        <mxCell id="JWHr9cYI6euD82Q0gi6f-65" style="edgeStyle=orthogonalEdgeStyle;rounded=0;orthogonalLoop=1;jettySize=auto;html=1;exitX=1;exitY=0.5;exitDx=0;exitDy=0;" parent="1" source="JWHr9cYI6euD82Q0gi6f-2" target="JWHr9cYI6euD82Q0gi6f-61" edge="1">
          <mxGeometry relative="1" as="geometry" />
        </mxCell>
        <mxCell id="h5KQm_CUNpYfWfY4xUv_-2" style="edgeStyle=orthogonalEdgeStyle;rounded=0;orthogonalLoop=1;jettySize=auto;html=1;exitX=0.25;exitY=0;exitDx=0;exitDy=0;" edge="1" parent="1" source="JWHr9cYI6euD82Q0gi6f-2" target="JWHr9cYI6euD82Q0gi6f-68">
          <mxGeometry relative="1" as="geometry" />
        </mxCell>
        <mxCell id="h5KQm_CUNpYfWfY4xUv_-3" style="edgeStyle=orthogonalEdgeStyle;rounded=0;orthogonalLoop=1;jettySize=auto;html=1;exitX=0.75;exitY=0;exitDx=0;exitDy=0;" edge="1" parent="1" source="JWHr9cYI6euD82Q0gi6f-2" target="JWHr9cYI6euD82Q0gi6f-69">
          <mxGeometry relative="1" as="geometry" />
        </mxCell>
        <mxCell id="h5KQm_CUNpYfWfY4xUv_-4" style="edgeStyle=orthogonalEdgeStyle;rounded=0;orthogonalLoop=1;jettySize=auto;html=1;exitX=0;exitY=0.75;exitDx=0;exitDy=0;" edge="1" parent="1" source="JWHr9cYI6euD82Q0gi6f-2" target="JWHr9cYI6euD82Q0gi6f-59">
          <mxGeometry relative="1" as="geometry" />
        </mxCell>
        <mxCell id="h5KQm_CUNpYfWfY4xUv_-5" style="edgeStyle=orthogonalEdgeStyle;rounded=0;orthogonalLoop=1;jettySize=auto;html=1;exitX=1;exitY=0.75;exitDx=0;exitDy=0;" edge="1" parent="1" source="JWHr9cYI6euD82Q0gi6f-2" target="JWHr9cYI6euD82Q0gi6f-66">
          <mxGeometry relative="1" as="geometry" />
        </mxCell>
        <mxCell id="JWHr9cYI6euD82Q0gi6f-2" value="Address" style="whiteSpace=wrap;html=1;align=center;" parent="1" vertex="1">
          <mxGeometry x="1376" y="380" width="100" height="40" as="geometry" />
        </mxCell>
        <mxCell id="Yr8jS5GsggjdQLUqcXRx-10" style="edgeStyle=orthogonalEdgeStyle;rounded=0;orthogonalLoop=1;jettySize=auto;html=1;exitX=0.5;exitY=0;exitDx=0;exitDy=0;" parent="1" source="JWHr9cYI6euD82Q0gi6f-3" target="Yr8jS5GsggjdQLUqcXRx-9" edge="1">
          <mxGeometry relative="1" as="geometry" />
        </mxCell>
        <mxCell id="Yr8jS5GsggjdQLUqcXRx-11" style="edgeStyle=orthogonalEdgeStyle;rounded=0;orthogonalLoop=1;jettySize=auto;html=1;exitX=0;exitY=0.5;exitDx=0;exitDy=0;" parent="1" source="JWHr9cYI6euD82Q0gi6f-3" target="Yr8jS5GsggjdQLUqcXRx-7" edge="1">
          <mxGeometry relative="1" as="geometry" />
        </mxCell>
        <mxCell id="PODrzx-EVbbxghZVqJL8-6" style="edgeStyle=orthogonalEdgeStyle;rounded=0;orthogonalLoop=1;jettySize=auto;html=1;exitX=0.25;exitY=0;exitDx=0;exitDy=0;" parent="1" source="JWHr9cYI6euD82Q0gi6f-3" target="PODrzx-EVbbxghZVqJL8-2" edge="1">
          <mxGeometry relative="1" as="geometry">
            <Array as="points">
              <mxPoint x="1060" y="702" />
              <mxPoint x="940" y="702" />
            </Array>
          </mxGeometry>
        </mxCell>
        <mxCell id="JWHr9cYI6euD82Q0gi6f-3" value="Transaction" style="whiteSpace=wrap;html=1;align=center;" parent="1" vertex="1">
          <mxGeometry x="1035" y="719" width="100" height="40" as="geometry" />
        </mxCell>
        <mxCell id="Yr8jS5GsggjdQLUqcXRx-14" style="edgeStyle=orthogonalEdgeStyle;rounded=0;orthogonalLoop=1;jettySize=auto;html=1;exitX=0;exitY=0.5;exitDx=0;exitDy=0;" parent="1" source="JWHr9cYI6euD82Q0gi6f-4" target="Yr8jS5GsggjdQLUqcXRx-13" edge="1">
          <mxGeometry relative="1" as="geometry" />
        </mxCell>
        <mxCell id="Yr8jS5GsggjdQLUqcXRx-16" style="edgeStyle=orthogonalEdgeStyle;rounded=0;orthogonalLoop=1;jettySize=auto;html=1;exitX=1;exitY=0.5;exitDx=0;exitDy=0;" parent="1" source="JWHr9cYI6euD82Q0gi6f-4" target="Yr8jS5GsggjdQLUqcXRx-15" edge="1">
          <mxGeometry relative="1" as="geometry" />
        </mxCell>
        <mxCell id="Yr8jS5GsggjdQLUqcXRx-18" style="edgeStyle=orthogonalEdgeStyle;rounded=0;orthogonalLoop=1;jettySize=auto;html=1;exitX=0.5;exitY=1;exitDx=0;exitDy=0;" parent="1" source="JWHr9cYI6euD82Q0gi6f-4" target="Yr8jS5GsggjdQLUqcXRx-17" edge="1">
          <mxGeometry relative="1" as="geometry" />
        </mxCell>
        <mxCell id="JWHr9cYI6euD82Q0gi6f-4" value="Wallet" style="whiteSpace=wrap;html=1;align=center;" parent="1" vertex="1">
          <mxGeometry x="1035" y="939" width="100" height="40" as="geometry" />
        </mxCell>
        <mxCell id="Yr8jS5GsggjdQLUqcXRx-4" style="edgeStyle=orthogonalEdgeStyle;rounded=0;orthogonalLoop=1;jettySize=auto;html=1;exitX=0.5;exitY=1;exitDx=0;exitDy=0;" parent="1" source="JWHr9cYI6euD82Q0gi6f-5" target="Yr8jS5GsggjdQLUqcXRx-2" edge="1">
          <mxGeometry relative="1" as="geometry" />
        </mxCell>
        <mxCell id="Yr8jS5GsggjdQLUqcXRx-5" style="edgeStyle=orthogonalEdgeStyle;rounded=0;orthogonalLoop=1;jettySize=auto;html=1;exitX=0.75;exitY=1;exitDx=0;exitDy=0;" parent="1" source="JWHr9cYI6euD82Q0gi6f-5" target="Yr8jS5GsggjdQLUqcXRx-1" edge="1">
          <mxGeometry relative="1" as="geometry" />
        </mxCell>
        <mxCell id="Yr8jS5GsggjdQLUqcXRx-6" style="edgeStyle=orthogonalEdgeStyle;rounded=0;orthogonalLoop=1;jettySize=auto;html=1;exitX=1;exitY=0.5;exitDx=0;exitDy=0;" parent="1" source="JWHr9cYI6euD82Q0gi6f-5" target="Yr8jS5GsggjdQLUqcXRx-3" edge="1">
          <mxGeometry relative="1" as="geometry" />
        </mxCell>
        <mxCell id="Yr8jS5GsggjdQLUqcXRx-20" style="edgeStyle=orthogonalEdgeStyle;rounded=0;orthogonalLoop=1;jettySize=auto;html=1;exitX=0.75;exitY=0;exitDx=0;exitDy=0;" parent="1" source="JWHr9cYI6euD82Q0gi6f-5" target="PODrzx-EVbbxghZVqJL8-1" edge="1">
          <mxGeometry relative="1" as="geometry">
            <mxPoint x="1570" y="670" as="targetPoint" />
          </mxGeometry>
        </mxCell>
        <mxCell id="CBOZYVvjUtv-n5PX9l5r-3" style="edgeStyle=orthogonalEdgeStyle;rounded=0;orthogonalLoop=1;jettySize=auto;html=1;exitX=0.25;exitY=1;exitDx=0;exitDy=0;entryX=0.5;entryY=0;entryDx=0;entryDy=0;" parent="1" source="JWHr9cYI6euD82Q0gi6f-5" target="CBOZYVvjUtv-n5PX9l5r-2" edge="1">
          <mxGeometry relative="1" as="geometry" />
        </mxCell>
        <mxCell id="JWHr9cYI6euD82Q0gi6f-5" value="Card" style="whiteSpace=wrap;html=1;align=center;" parent="1" vertex="1">
          <mxGeometry x="1376" y="719" width="100" height="40" as="geometry" />
        </mxCell>
        <mxCell id="JWHr9cYI6euD82Q0gi6f-77" style="edgeStyle=orthogonalEdgeStyle;rounded=0;orthogonalLoop=1;jettySize=auto;html=1;exitX=0.75;exitY=1;exitDx=0;exitDy=0;" parent="1" source="JWHr9cYI6euD82Q0gi6f-6" target="JWHr9cYI6euD82Q0gi6f-76" edge="1">
          <mxGeometry relative="1" as="geometry" />
        </mxCell>
        <mxCell id="JWHr9cYI6euD82Q0gi6f-78" style="edgeStyle=orthogonalEdgeStyle;rounded=0;orthogonalLoop=1;jettySize=auto;html=1;exitX=0.25;exitY=1;exitDx=0;exitDy=0;" parent="1" source="JWHr9cYI6euD82Q0gi6f-6" target="JWHr9cYI6euD82Q0gi6f-75" edge="1">
          <mxGeometry relative="1" as="geometry" />
        </mxCell>
        <mxCell id="JWHr9cYI6euD82Q0gi6f-79" style="edgeStyle=orthogonalEdgeStyle;rounded=0;orthogonalLoop=1;jettySize=auto;html=1;exitX=0.5;exitY=0;exitDx=0;exitDy=0;" parent="1" source="JWHr9cYI6euD82Q0gi6f-6" target="JWHr9cYI6euD82Q0gi6f-74" edge="1">
          <mxGeometry relative="1" as="geometry" />
        </mxCell>
        <mxCell id="JWHr9cYI6euD82Q0gi6f-6" value="User" style="whiteSpace=wrap;html=1;align=center;" parent="1" vertex="1">
          <mxGeometry x="1207" y="560" width="100" height="40" as="geometry" />
        </mxCell>
        <mxCell id="JWHr9cYI6euD82Q0gi6f-55" style="edgeStyle=orthogonalEdgeStyle;rounded=0;orthogonalLoop=1;jettySize=auto;html=1;exitX=0.5;exitY=0;exitDx=0;exitDy=0;" parent="1" source="JWHr9cYI6euD82Q0gi6f-7" target="JWHr9cYI6euD82Q0gi6f-54" edge="1">
          <mxGeometry relative="1" as="geometry" />
        </mxCell>
        <mxCell id="JWHr9cYI6euD82Q0gi6f-56" style="edgeStyle=orthogonalEdgeStyle;rounded=0;orthogonalLoop=1;jettySize=auto;html=1;exitX=0.25;exitY=0;exitDx=0;exitDy=0;" parent="1" source="JWHr9cYI6euD82Q0gi6f-7" target="JWHr9cYI6euD82Q0gi6f-52" edge="1">
          <mxGeometry relative="1" as="geometry" />
        </mxCell>
        <mxCell id="JWHr9cYI6euD82Q0gi6f-57" style="edgeStyle=orthogonalEdgeStyle;rounded=0;orthogonalLoop=1;jettySize=auto;html=1;exitX=0;exitY=0.5;exitDx=0;exitDy=0;" parent="1" source="JWHr9cYI6euD82Q0gi6f-7" target="JWHr9cYI6euD82Q0gi6f-50" edge="1">
          <mxGeometry relative="1" as="geometry" />
        </mxCell>
        <mxCell id="JWHr9cYI6euD82Q0gi6f-58" style="edgeStyle=orthogonalEdgeStyle;rounded=0;orthogonalLoop=1;jettySize=auto;html=1;exitX=0.75;exitY=0;exitDx=0;exitDy=0;" parent="1" source="JWHr9cYI6euD82Q0gi6f-7" target="JWHr9cYI6euD82Q0gi6f-51" edge="1">
          <mxGeometry relative="1" as="geometry" />
        </mxCell>
        <mxCell id="JWHr9cYI6euD82Q0gi6f-7" value="Person" style="whiteSpace=wrap;html=1;align=center;" parent="1" vertex="1">
          <mxGeometry x="1036" y="380" width="100" height="40" as="geometry" />
        </mxCell>
        <mxCell id="JWHr9cYI6euD82Q0gi6f-10" value="Familiar" style="whiteSpace=wrap;html=1;align=center;" parent="1" vertex="1">
          <mxGeometry x="866" y="558" width="100" height="40" as="geometry" />
        </mxCell>
        <mxCell id="JWHr9cYI6euD82Q0gi6f-11" value="To LIve" style="shape=rhombus;perimeter=rhombusPerimeter;whiteSpace=wrap;html=1;align=center;" parent="1" vertex="1">
          <mxGeometry x="1197" y="370" width="120" height="60" as="geometry" />
        </mxCell>
        <mxCell id="JWHr9cYI6euD82Q0gi6f-12" value="" style="endArrow=none;html=1;rounded=0;" parent="1" source="JWHr9cYI6euD82Q0gi6f-7" target="JWHr9cYI6euD82Q0gi6f-11" edge="1">
          <mxGeometry relative="1" as="geometry">
            <mxPoint x="666" y="510" as="sourcePoint" />
            <mxPoint x="826" y="510" as="targetPoint" />
          </mxGeometry>
        </mxCell>
        <mxCell id="JWHr9cYI6euD82Q0gi6f-13" value="(1)" style="resizable=0;html=1;whiteSpace=wrap;align=right;verticalAlign=bottom;" parent="JWHr9cYI6euD82Q0gi6f-12" connectable="0" vertex="1">
          <mxGeometry x="1" relative="1" as="geometry" />
        </mxCell>
        <mxCell id="JWHr9cYI6euD82Q0gi6f-15" value="" style="endArrow=none;html=1;rounded=0;" parent="1" source="JWHr9cYI6euD82Q0gi6f-2" target="JWHr9cYI6euD82Q0gi6f-11" edge="1">
          <mxGeometry relative="1" as="geometry">
            <mxPoint x="1276" y="540" as="sourcePoint" />
            <mxPoint x="946" y="570" as="targetPoint" />
          </mxGeometry>
        </mxCell>
        <mxCell id="JWHr9cYI6euD82Q0gi6f-16" value="(0,N)" style="resizable=0;html=1;whiteSpace=wrap;align=right;verticalAlign=bottom;" parent="JWHr9cYI6euD82Q0gi6f-15" connectable="0" vertex="1">
          <mxGeometry x="1" relative="1" as="geometry">
            <mxPoint x="29" as="offset" />
          </mxGeometry>
        </mxCell>
        <mxCell id="JWHr9cYI6euD82Q0gi6f-25" value="" style="ellipse;whiteSpace=wrap;html=1;aspect=fixed;" parent="1" vertex="1">
          <mxGeometry x="1071" y="470" width="30" height="30" as="geometry" />
        </mxCell>
        <mxCell id="JWHr9cYI6euD82Q0gi6f-26" value="d" style="text;html=1;align=center;verticalAlign=middle;resizable=0;points=[];autosize=1;strokeColor=none;fillColor=none;fontSize=17;" parent="1" vertex="1">
          <mxGeometry x="1071" y="470" width="30" height="30" as="geometry" />
        </mxCell>
        <mxCell id="JWHr9cYI6euD82Q0gi6f-27" value="" style="endArrow=none;html=1;rounded=0;exitX=0.5;exitY=0;exitDx=0;exitDy=0;" parent="1" source="JWHr9cYI6euD82Q0gi6f-25" target="JWHr9cYI6euD82Q0gi6f-7" edge="1">
          <mxGeometry width="50" height="50" relative="1" as="geometry">
            <mxPoint x="1070" y="500" as="sourcePoint" />
            <mxPoint x="1136" y="500" as="targetPoint" />
          </mxGeometry>
        </mxCell>
        <mxCell id="JWHr9cYI6euD82Q0gi6f-30" value="To Be Related" style="shape=rhombus;perimeter=rhombusPerimeter;whiteSpace=wrap;html=1;align=center;" parent="1" vertex="1">
          <mxGeometry x="1026" y="550" width="120" height="60" as="geometry" />
        </mxCell>
        <mxCell id="JWHr9cYI6euD82Q0gi6f-31" value="" style="endArrow=none;html=1;rounded=0;" parent="1" source="JWHr9cYI6euD82Q0gi6f-10" target="JWHr9cYI6euD82Q0gi6f-30" edge="1">
          <mxGeometry relative="1" as="geometry">
            <mxPoint x="996" y="689" as="sourcePoint" />
            <mxPoint x="1057" y="689" as="targetPoint" />
          </mxGeometry>
        </mxCell>
        <mxCell id="JWHr9cYI6euD82Q0gi6f-32" value="(1)" style="resizable=0;html=1;whiteSpace=wrap;align=right;verticalAlign=bottom;" parent="JWHr9cYI6euD82Q0gi6f-31" connectable="0" vertex="1">
          <mxGeometry x="1" relative="1" as="geometry" />
        </mxCell>
        <mxCell id="JWHr9cYI6euD82Q0gi6f-33" value="" style="endArrow=none;html=1;rounded=0;" parent="1" source="JWHr9cYI6euD82Q0gi6f-6" target="JWHr9cYI6euD82Q0gi6f-30" edge="1">
          <mxGeometry relative="1" as="geometry">
            <mxPoint x="1236" y="689" as="sourcePoint" />
            <mxPoint x="1177" y="689" as="targetPoint" />
          </mxGeometry>
        </mxCell>
        <mxCell id="JWHr9cYI6euD82Q0gi6f-34" value="(0,N)" style="resizable=0;html=1;whiteSpace=wrap;align=right;verticalAlign=bottom;" parent="JWHr9cYI6euD82Q0gi6f-33" connectable="0" vertex="1">
          <mxGeometry x="1" relative="1" as="geometry">
            <mxPoint x="30" as="offset" />
          </mxGeometry>
        </mxCell>
        <mxCell id="JWHr9cYI6euD82Q0gi6f-35" value="To Own" style="shape=rhombus;perimeter=rhombusPerimeter;whiteSpace=wrap;html=1;align=center;" parent="1" vertex="1">
          <mxGeometry x="1366" y="550" width="120" height="60" as="geometry" />
        </mxCell>
        <mxCell id="JWHr9cYI6euD82Q0gi6f-36" value="" style="endArrow=none;html=1;rounded=0;" parent="1" source="JWHr9cYI6euD82Q0gi6f-5" target="JWHr9cYI6euD82Q0gi6f-35" edge="1">
          <mxGeometry relative="1" as="geometry">
            <mxPoint x="1396" y="780" as="sourcePoint" />
            <mxPoint x="1146" y="879" as="targetPoint" />
          </mxGeometry>
        </mxCell>
        <mxCell id="JWHr9cYI6euD82Q0gi6f-37" value="(1)" style="resizable=0;html=1;whiteSpace=wrap;align=right;verticalAlign=bottom;" parent="JWHr9cYI6euD82Q0gi6f-36" connectable="0" vertex="1">
          <mxGeometry x="1" relative="1" as="geometry">
            <mxPoint y="20" as="offset" />
          </mxGeometry>
        </mxCell>
        <mxCell id="JWHr9cYI6euD82Q0gi6f-38" value="" style="endArrow=none;html=1;rounded=0;" parent="1" source="JWHr9cYI6euD82Q0gi6f-6" target="JWHr9cYI6euD82Q0gi6f-35" edge="1">
          <mxGeometry relative="1" as="geometry">
            <mxPoint x="1396" y="600" as="sourcePoint" />
            <mxPoint x="1496" y="680" as="targetPoint" />
          </mxGeometry>
        </mxCell>
        <mxCell id="JWHr9cYI6euD82Q0gi6f-39" value="(0,N)" style="resizable=0;html=1;whiteSpace=wrap;align=right;verticalAlign=bottom;" parent="JWHr9cYI6euD82Q0gi6f-38" connectable="0" vertex="1">
          <mxGeometry x="1" relative="1" as="geometry">
            <mxPoint as="offset" />
          </mxGeometry>
        </mxCell>
        <mxCell id="JWHr9cYI6euD82Q0gi6f-40" value="To Make" style="shape=rhombus;perimeter=rhombusPerimeter;whiteSpace=wrap;html=1;align=center;" parent="1" vertex="1">
          <mxGeometry x="1195" y="709" width="120" height="60" as="geometry" />
        </mxCell>
        <mxCell id="JWHr9cYI6euD82Q0gi6f-41" value="" style="endArrow=none;html=1;rounded=0;" parent="1" source="JWHr9cYI6euD82Q0gi6f-3" target="JWHr9cYI6euD82Q0gi6f-40" edge="1">
          <mxGeometry relative="1" as="geometry">
            <mxPoint x="1135" y="738" as="sourcePoint" />
            <mxPoint x="1226" y="848" as="targetPoint" />
          </mxGeometry>
        </mxCell>
        <mxCell id="JWHr9cYI6euD82Q0gi6f-42" value="(1)" style="resizable=0;html=1;whiteSpace=wrap;align=right;verticalAlign=bottom;" parent="JWHr9cYI6euD82Q0gi6f-41" connectable="0" vertex="1">
          <mxGeometry x="1" relative="1" as="geometry" />
        </mxCell>
        <mxCell id="JWHr9cYI6euD82Q0gi6f-43" value="" style="endArrow=none;html=1;rounded=0;" parent="1" source="JWHr9cYI6euD82Q0gi6f-5" target="JWHr9cYI6euD82Q0gi6f-40" edge="1">
          <mxGeometry relative="1" as="geometry">
            <mxPoint x="1376" y="739" as="sourcePoint" />
            <mxPoint x="1346" y="848" as="targetPoint" />
          </mxGeometry>
        </mxCell>
        <mxCell id="JWHr9cYI6euD82Q0gi6f-44" value="(0,N)" style="resizable=0;html=1;whiteSpace=wrap;align=right;verticalAlign=bottom;" parent="JWHr9cYI6euD82Q0gi6f-43" connectable="0" vertex="1">
          <mxGeometry x="1" relative="1" as="geometry">
            <mxPoint x="30" as="offset" />
          </mxGeometry>
        </mxCell>
        <mxCell id="JWHr9cYI6euD82Q0gi6f-45" value="To Be In" style="shape=rhombus;perimeter=rhombusPerimeter;whiteSpace=wrap;html=1;align=center;" parent="1" vertex="1">
          <mxGeometry x="1025" y="817.99" width="120" height="60" as="geometry" />
        </mxCell>
        <mxCell id="JWHr9cYI6euD82Q0gi6f-46" value="" style="endArrow=none;html=1;rounded=0;" parent="1" source="JWHr9cYI6euD82Q0gi6f-4" target="JWHr9cYI6euD82Q0gi6f-45" edge="1">
          <mxGeometry relative="1" as="geometry">
            <mxPoint x="1085" y="938" as="sourcePoint" />
            <mxPoint x="974" y="1038" as="targetPoint" />
          </mxGeometry>
        </mxCell>
        <mxCell id="JWHr9cYI6euD82Q0gi6f-47" value="(0,N)" style="resizable=0;html=1;whiteSpace=wrap;align=right;verticalAlign=bottom;" parent="JWHr9cYI6euD82Q0gi6f-46" connectable="0" vertex="1">
          <mxGeometry x="1" relative="1" as="geometry">
            <mxPoint y="20" as="offset" />
          </mxGeometry>
        </mxCell>
        <mxCell id="JWHr9cYI6euD82Q0gi6f-48" value="" style="endArrow=none;html=1;rounded=0;" parent="1" source="JWHr9cYI6euD82Q0gi6f-3" target="JWHr9cYI6euD82Q0gi6f-45" edge="1">
          <mxGeometry relative="1" as="geometry">
            <mxPoint x="1085" y="759" as="sourcePoint" />
            <mxPoint x="1324" y="839" as="targetPoint" />
          </mxGeometry>
        </mxCell>
        <mxCell id="JWHr9cYI6euD82Q0gi6f-49" value="(0,1)" style="resizable=0;html=1;whiteSpace=wrap;align=right;verticalAlign=bottom;" parent="JWHr9cYI6euD82Q0gi6f-48" connectable="0" vertex="1">
          <mxGeometry x="1" relative="1" as="geometry">
            <mxPoint as="offset" />
          </mxGeometry>
        </mxCell>
        <mxCell id="JWHr9cYI6euD82Q0gi6f-50" value="name" style="ellipse;whiteSpace=wrap;html=1;align=center;" parent="1" vertex="1">
          <mxGeometry x="896" y="380" width="100" height="40" as="geometry" />
        </mxCell>
        <mxCell id="JWHr9cYI6euD82Q0gi6f-51" value="dateOfBirth" style="ellipse;whiteSpace=wrap;html=1;align=center;" parent="1" vertex="1">
          <mxGeometry x="1176" y="294" width="100" height="40" as="geometry" />
        </mxCell>
        <mxCell id="JWHr9cYI6euD82Q0gi6f-52" value="surname" style="ellipse;whiteSpace=wrap;html=1;align=center;" parent="1" vertex="1">
          <mxGeometry x="896" y="294" width="100" height="40" as="geometry" />
        </mxCell>
        <mxCell id="JWHr9cYI6euD82Q0gi6f-54" value="CF" style="ellipse;whiteSpace=wrap;html=1;align=center;fontStyle=4;" parent="1" vertex="1">
          <mxGeometry x="1036" y="294" width="100" height="40" as="geometry" />
        </mxCell>
        <mxCell id="JWHr9cYI6euD82Q0gi6f-59" value="prefix" style="ellipse;whiteSpace=wrap;html=1;align=center;" parent="1" vertex="1">
          <mxGeometry x="1290" y="430" width="100" height="40" as="geometry" />
        </mxCell>
        <mxCell id="JWHr9cYI6euD82Q0gi6f-60" value="name" style="ellipse;whiteSpace=wrap;html=1;align=center;fontStyle=4;" parent="1" vertex="1">
          <mxGeometry x="1400" y="451" width="100" height="40" as="geometry" />
        </mxCell>
        <mxCell id="JWHr9cYI6euD82Q0gi6f-61" value="civicNumber" style="ellipse;whiteSpace=wrap;html=1;align=center;fontStyle=4;" parent="1" vertex="1">
          <mxGeometry x="1530" y="340" width="100" height="40" as="geometry" />
        </mxCell>
        <mxCell id="JWHr9cYI6euD82Q0gi6f-66" value="province" style="ellipse;whiteSpace=wrap;html=1;align=center;" parent="1" vertex="1">
          <mxGeometry x="1516" y="411" width="100" height="40" as="geometry" />
        </mxCell>
        <mxCell id="JWHr9cYI6euD82Q0gi6f-68" value="cityName" style="ellipse;whiteSpace=wrap;html=1;align=center;" parent="1" vertex="1">
          <mxGeometry x="1317" y="294" width="100" height="40" as="geometry" />
        </mxCell>
        <mxCell id="JWHr9cYI6euD82Q0gi6f-69" value="postalCode" style="ellipse;whiteSpace=wrap;html=1;align=center;fontStyle=4;" parent="1" vertex="1">
          <mxGeometry x="1440" y="300" width="100" height="40" as="geometry" />
        </mxCell>
        <mxCell id="JWHr9cYI6euD82Q0gi6f-74" value="email" style="ellipse;whiteSpace=wrap;html=1;align=center;fontStyle=4;" parent="1" vertex="1">
          <mxGeometry x="1207" y="481" width="100" height="40" as="geometry" />
        </mxCell>
        <mxCell id="JWHr9cYI6euD82Q0gi6f-75" value="username" style="ellipse;whiteSpace=wrap;html=1;align=center;" parent="1" vertex="1">
          <mxGeometry x="1150" y="640" width="100" height="40" as="geometry" />
        </mxCell>
        <mxCell id="JWHr9cYI6euD82Q0gi6f-76" value="prefix" style="ellipse;whiteSpace=wrap;html=1;align=center;" parent="1" vertex="1">
          <mxGeometry x="1266" y="640" width="100" height="40" as="geometry" />
        </mxCell>
        <mxCell id="JWHr9cYI6euD82Q0gi6f-80" value="" style="endArrow=none;html=1;rounded=0;exitX=1;exitY=0;exitDx=0;exitDy=0;entryX=0;entryY=1;entryDx=0;entryDy=0;" parent="1" source="JWHr9cYI6euD82Q0gi6f-10" target="JWHr9cYI6euD82Q0gi6f-25" edge="1">
          <mxGeometry width="50" height="50" relative="1" as="geometry">
            <mxPoint x="1025" y="521" as="sourcePoint" />
            <mxPoint x="1025" y="471" as="targetPoint" />
          </mxGeometry>
        </mxCell>
        <mxCell id="JWHr9cYI6euD82Q0gi6f-81" value="" style="endArrow=none;html=1;rounded=0;exitX=0;exitY=0;exitDx=0;exitDy=0;entryX=1;entryY=1;entryDx=0;entryDy=0;" parent="1" source="JWHr9cYI6euD82Q0gi6f-6" target="JWHr9cYI6euD82Q0gi6f-25" edge="1">
          <mxGeometry width="50" height="50" relative="1" as="geometry">
            <mxPoint x="1160" y="531" as="sourcePoint" />
            <mxPoint x="1160" y="481" as="targetPoint" />
          </mxGeometry>
        </mxCell>
        <mxCell id="JWHr9cYI6euD82Q0gi6f-87" value="U" style="text;html=1;align=center;verticalAlign=middle;resizable=0;points=[];autosize=1;strokeColor=none;fillColor=none;fontSize=17;rotation=-60;" parent="1" vertex="1">
          <mxGeometry x="1095" y="491" width="40" height="30" as="geometry" />
        </mxCell>
        <mxCell id="JWHr9cYI6euD82Q0gi6f-89" value="U" style="text;html=1;align=center;verticalAlign=middle;resizable=0;points=[];autosize=1;strokeColor=none;fillColor=none;fontSize=17;rotation=60;" parent="1" vertex="1">
          <mxGeometry x="1036" y="491" width="40" height="30" as="geometry" />
        </mxCell>
        <mxCell id="Yr8jS5GsggjdQLUqcXRx-1" value="expireDate" style="ellipse;whiteSpace=wrap;html=1;align=center;" parent="1" vertex="1">
          <mxGeometry x="1520" y="800" width="100" height="40" as="geometry" />
        </mxCell>
        <mxCell id="Yr8jS5GsggjdQLUqcXRx-2" value="CVV" style="ellipse;whiteSpace=wrap;html=1;align=center;" parent="1" vertex="1">
          <mxGeometry x="1376" y="800" width="100" height="40" as="geometry" />
        </mxCell>
        <mxCell id="Yr8jS5GsggjdQLUqcXRx-3" value="IBAN" style="ellipse;whiteSpace=wrap;html=1;align=center;fontStyle=4;" parent="1" vertex="1">
          <mxGeometry x="1520" y="719" width="100" height="40" as="geometry" />
        </mxCell>
        <mxCell id="Yr8jS5GsggjdQLUqcXRx-7" value="date" style="ellipse;whiteSpace=wrap;html=1;align=center;" parent="1" vertex="1">
          <mxGeometry x="890" y="719" width="100" height="40" as="geometry" />
        </mxCell>
        <mxCell id="Yr8jS5GsggjdQLUqcXRx-9" value="amount" style="ellipse;whiteSpace=wrap;html=1;align=center;" parent="1" vertex="1">
          <mxGeometry x="1035" y="642" width="100" height="40" as="geometry" />
        </mxCell>
        <mxCell id="Yr8jS5GsggjdQLUqcXRx-13" value="name" style="ellipse;whiteSpace=wrap;html=1;align=center;" parent="1" vertex="1">
          <mxGeometry x="896" y="939" width="100" height="40" as="geometry" />
        </mxCell>
        <mxCell id="Yr8jS5GsggjdQLUqcXRx-15" value="category" style="ellipse;shape=doubleEllipse;margin=3;whiteSpace=wrap;html=1;align=center;" parent="1" vertex="1">
          <mxGeometry x="1176" y="939" width="100" height="40" as="geometry" />
        </mxCell>
        <mxCell id="Yr8jS5GsggjdQLUqcXRx-17" value="totalAmount" style="ellipse;whiteSpace=wrap;html=1;align=center;dashed=1;" parent="1" vertex="1">
          <mxGeometry x="1035" y="1020" width="100" height="40" as="geometry" />
        </mxCell>
        <mxCell id="CBOZYVvjUtv-n5PX9l5r-2" value="balance" style="ellipse;whiteSpace=wrap;html=1;align=center;" parent="1" vertex="1">
          <mxGeometry x="1240" y="800" width="100" height="40" as="geometry" />
        </mxCell>
        <mxCell id="PODrzx-EVbbxghZVqJL8-1" value="cardType" style="ellipse;whiteSpace=wrap;html=1;align=center;" parent="1" vertex="1">
          <mxGeometry x="1516" y="630" width="100" height="40" as="geometry" />
        </mxCell>
        <mxCell id="PODrzx-EVbbxghZVqJL8-2" value="category" style="ellipse;shape=doubleEllipse;margin=3;whiteSpace=wrap;html=1;align=center;" parent="1" vertex="1">
          <mxGeometry x="890" y="642" width="100" height="40" as="geometry" />
        </mxCell>
      </root>
    </mxGraphModel>
  </diagram>
</mxfile>
